# xmcd
#
# Track frame offsets:
#	150
#	6702
#	19450
#	35100
#	53242
#	61415
#	69425
#	82370
#	104587
#	118957
#	138525
#	150167
#	166995
#	177515
#	184857
#	205552
#
# Disc length: 2754 seconds
#
# Revision: 0
# Processed by: cddbd v1.5.1PL2 Copyright (c) Steve Scherf et al.
# Submitted via: dBpowerAMP V4.0
#
DISCID=ef0ac010
DTITLE=Various Artist - Mud Acres - Music among Friends
DYEAR=1972
DGENRE=Bluegrass
TTITLE0=Cowpoke
TTITLE1=Done Laid around
TTITLE2=Darlin' Crorey Is gone
TTITLE3=Titanic
TTITLE4=Give Me Back My Fifteen Cents
TTITLE5=Out Of Joint
TTITLE6=Jackhammer Blues
TTITLE7=Oh, The Train
TTITLE8=Hobo Blues
TTITLE9=Off To See Once More
TTITLE10=Fiften Miles To Birmingham
TTITLE11=Lonesome Pines
TTITLE12=Prison Wall Blues
TTITLE13=Parting Friends
TTITLE14=Mud Acres
TTITLE15=DATA
EXTD=
EXTT0=
EXTT1=
EXTT2=
EXTT3=
EXTT4=
EXTT5=
EXTT6=
EXTT7=
EXTT8=
EXTT9=
EXTT10=
EXTT11=
EXTT12=
EXTT13=
EXTT14=
EXTT15=
PLAYORDER=
